Abduction_states
version=1
nRows=12
nColumns=41
inDegrees=yes

# SIMM Motion File Header:
name Abduction_states
datacolumns 41
datarows 12
otherdata 1
range 0.00000000 1.65641091
endheader
time	/jointset/ground_thorax/thorax_tilt/value	/jointset/ground_thorax/thorax_tilt/speed	/jointset/ground_thorax/thorax_list/value	/jointset/ground_thorax/thorax_list/speed	/jointset/ground_thorax/thorax_rotation/value	/jointset/ground_thorax/thorax_rotation/speed	/jointset/ground_thorax/thorax_tx/value	/jointset/ground_thorax/thorax_tx/speed	/jointset/ground_thorax/thorax_ty/value	/jointset/ground_thorax/thorax_ty/speed	/jointset/ground_thorax/thorax_tz/value	/jointset/ground_thorax/thorax_tz/speed	/jointset/sternoclavicular/sternoclavicular_r2/value	/jointset/sternoclavicular/sternoclavicular_r2/speed	/jointset/sternoclavicular/sternoclavicular_r3/value	/jointset/sternoclavicular/sternoclavicular_r3/speed	/jointset/unrotscap/unrotscap_r3/value	/jointset/unrotscap/unrotscap_r3/speed	/jointset/unrotscap/unrotscap_r2/value	/jointset/unrotscap/unrotscap_r2/speed	/jointset/acromioclavicular/acromioclavicular_r2/value	/jointset/acromioclavicular/acromioclavicular_r2/speed	/jointset/acromioclavicular/acromioclavicular_r3/value	/jointset/acromioclavicular/acromioclavicular_r3/speed	/jointset/acromioclavicular/acromioclavicular_r1/value	/jointset/acromioclavicular/acromioclavicular_r1/speed	/jointset/unrothum/unrothum_r1/value	/jointset/unrothum/unrothum_r1/speed	/jointset/unrothum/unrothum_r3/value	/jointset/unrothum/unrothum_r3/speed	/jointset/unrothum/unrothum_r2/value	/jointset/unrothum/unrothum_r2/speed	/jointset/shoulder0/elv_angle/value	/jointset/shoulder0/elv_angle/speed	/jointset/shoulder1/shoulder_elv/value	/jointset/shoulder1/shoulder_elv/speed	/jointset/shoulder1/shoulder1_r2/value	/jointset/shoulder1/shoulder1_r2/speed	/jointset/shoulder2/shoulder_rot/value	/jointset/shoulder2/shoulder_rot/speed
      0.00000000	      0.00000000	      0.00000000	      0.00000000	      0.00000000	      0.00000000	      0.00000000	      0.00000000	      0.00000000	      0.00000000	      0.00000000	      0.00000000	      0.00000000	      0.00000000	      0.00000000	     -0.00000000	      0.00000000	      0.00000000	      0.00000000	     -0.00000000	      0.00000000	      0.00000000	      0.00000000	     -0.00000000	      0.00000000	     -0.00000000	      0.00000000	      0.00000000	      0.00000000	      0.00000000	      0.00000000	     -0.00000000	      0.00000000	     30.00000000	      0.00000000	     -0.00000000	      0.00000000	    -30.00000000	      0.00000000	      0.00000000	      0.00000000
      0.01000000	     -0.00000000	     -0.00000000	     -0.00000000	     -0.00000000	     -0.00000000	     -0.00000000	      0.00000000	      0.00000000	      0.00000000	     -0.00000000	     -0.00000000	     -0.00000000	     -0.00065188	     -0.13035654	      0.00027611	      0.05521283	     -0.00027611	     -0.05521283	      0.00065188	      0.13035654	     -0.00013199	     -0.02639434	      0.00106670	      0.21330696	      0.00047949	      0.09588217	     -0.00047949	     -0.09588217	     -0.00106670	     -0.21330696	      0.00013199	      0.02639434	     30.00000000	      0.00000000	      0.00269376	      0.53866848	    -30.00000000	     -0.00000000	      0.00000000	      0.00000000
      0.06000000	      0.00000000	      0.00000000	     -0.00000000	     -0.00000000	     -0.00000000	     -0.00000000	     -0.00000000	     -0.00000000	     -0.00000000	     -0.00000000	      0.00000000	      0.00000000	     -0.02343108	     -0.78030081	      0.00992429	      0.33049833	     -0.00992429	     -0.33049833	      0.02343108	      0.78030081	     -0.00474428	     -0.15799382	      0.03834110	      1.27683347	      0.01723445	      0.57394077	     -0.01723445	     -0.57394077	     -0.03834110	     -1.27683347	      0.00474428	      0.15799382	     30.00000000	     -0.00000000	      0.09682357	      3.22441403	    -30.00000000	      0.00000000	      0.00000000	      0.00000000
      0.31000000	      0.00000000	     -0.00000000	     -0.00000000	     -0.00000000	     -0.00000000	     -0.00000000	     -0.00000000	     -0.00000000	      0.00000000	      0.00000000	      0.00000000	      0.00000000	     -0.62058150	     -3.98418281	      0.26284883	      1.68751047	     -0.26284883	     -1.68751047	      0.62058150	      3.98418281	     -0.12565416	     -0.80670976	      1.01547919	      6.51945753	      0.45646118	      2.93051723	     -0.45646118	     -2.93051723	     -1.01547919	     -6.51945753	      0.12565416	      0.80670976	     30.00000000	      0.00000000	      2.56441066	     16.46372125	    -30.00000000	      0.00000000	     -0.00000000	     -0.00000000
      1.02412930	     -0.00000000	     -0.00000000	      0.00000000	      0.00000000	      0.00000000	      0.00000000	     -0.00000000	     -0.00000000	      0.00000000	      0.00000000	     -0.00000000	     -0.00000000	     -6.62001334	    -12.71023292	      2.80392299	      5.38345053	     -2.80392299	     -5.38345053	      6.62001334	     12.71023292	     -1.34040772	     -2.57354381	     10.83255912	     20.79819819	      4.86927033	      9.34885730	     -4.86927033	     -9.34885730	    -10.83255912	    -20.79819819	      1.34040772	      2.57354381	     30.00000000	     -0.00000000	     27.35568610	     52.52212103	    -30.00000000	      0.00000000	      0.00000000	      0.00000000
      1.13600249	     -0.00000000	     -0.00000000	      0.00000000	      0.00000000	      0.00000000	      0.00000000	     -0.00000000	     -0.00000000	      0.00000000	      0.00000000	     -0.00000000	     -0.00000000	     -8.11520876	    -14.01705097	      3.43721671	      5.93695654	     -3.43721671	     -5.93695654	      8.11520876	     14.01705097	     -1.64315205	     -2.83814584	     13.27919962	     22.93659022	      5.96904314	     10.31007142	     -5.96904314	    -10.31007142	    -13.27919962	    -22.93659022	      1.64315205	      2.83814584	     30.00000000	     -0.00000000	     33.53423808	     57.92224675	    -30.00000000	      0.00000000	      0.00000000	      0.00000000
      1.24733868	     -0.00000000	     -0.00000000	      0.00000000	     -0.00000000	      0.00000000	      0.00000000	     -0.00000000	     -0.00000000	      0.00000000	      0.00000000	     -0.00000000	     -0.00000000	     -9.74739917	    -15.29999321	      4.12853498	      6.48034990	     -4.12853498	     -6.48034990	      9.74739917	     15.29999321	     -1.97363486	     -3.09791355	     15.95000982	     25.03591344	      7.16958095	     11.25372399	     -7.16958095	    -11.25372399	    -15.95000982	    -25.03591344	      1.97363486	      3.09791355	     30.00000000	     -0.00000000	     40.27889042	     63.22371120	    -30.00000000	      0.00000000	      0.00000000	      0.00000000
      1.33244726	     -0.00000000	     -0.00000000	      0.00000000	     -0.00000000	      0.00000000	      0.00000000	     -0.00000000	     -0.00000000	      0.00000000	      0.00000000	     -0.00000000	     -0.00000000	    -11.09084482	    -16.26829653	      4.69755470	      6.89047716	     -4.69755470	     -6.89047716	     11.09084482	     16.26829653	     -2.24565318	     -3.29397377	     18.14833687	     26.62038200	      8.15773607	     11.96594773	     -8.15773607	    -11.96594773	    -18.14833687	    -26.62038200	      2.24565318	      3.29397377	     30.00000000	     -0.00000000	     45.83037129	     67.22500249	    -30.00000000	      0.00000000	      0.00000000	      0.00000000
      1.43625505	     -0.00000000	     -0.00000000	      0.00000000	     -0.00000000	      0.00000000	      0.00000000	     -0.00000000	     -0.00000000	      0.00000000	      0.00000000	     -0.00000000	     -0.00000000	    -12.84022778	    -17.43219175	      5.43851018	      7.38344785	     -5.43851018	     -7.38344785	     12.84022778	     17.43219175	     -2.59986492	     -3.52963706	     21.01091332	     28.52490440	      9.44447343	     12.82203671	     -9.44447343	    -12.82203671	    -21.01091332	    -28.52490440	      2.59986492	      3.52963706	     30.00000000	     -0.00000000	     53.05929495	     72.03453239	    -30.00000000	      0.00000000	      0.00000000	      0.00000000
      1.52470811	     -0.00000000	     -0.00000000	      0.00000000	     -0.00000000	      0.00000000	      0.00000000	     -0.00000000	     -0.00000000	      0.00000000	      0.00000000	     -0.00000000	     -0.00000000	    -14.42508158	    -18.39495235	      6.10977892	      7.79122748	     -6.10977892	     -7.79122748	     14.42508158	     18.39495235	     -2.92076310	     -3.72457499	     23.60426497	     30.10030321	     10.61019338	     13.53018356	    -10.61019338	    -13.53018356	    -23.60426497	    -30.10030321	      2.92076310	      3.72457499	     30.00000000	     -0.00000000	     59.60833964	     76.01291964	    -30.00000000	      0.00000000	      0.00000000	      0.00000000
      1.59619926	     -0.00000000	     -0.00000000	      0.00000000	     -0.00000000	      0.00000000	      0.00000000	     -0.00000000	     -0.00000000	      0.00000000	      0.00000000	     -0.00000000	     -0.00000000	    -15.76621790	    -19.10515416	      6.67782052	      8.09203521	     -6.67782052	     -8.09203521	     15.76621790	     19.10515416	     -3.19231384	     -3.86837531	     25.79881320	     31.26243125	     11.59664990	     14.05256387	    -11.59664990	    -14.05256387	    -25.79881320	    -31.26243125	      3.19231384	      3.86837531	     30.00000000	     -0.00000000	     65.15027776	     78.94766568	    -30.00000000	      0.00000000	      0.00000000	      0.00000000
      1.65641091	     -0.00000000	     -0.00000000	      0.00000000	     -0.00000000	      0.00000000	      0.00000000	     -0.00000000	     -0.00000000	      0.00000000	      0.00000000	     -0.00000000	     -0.00000000	    -16.93101885	    -19.54477793	      7.17117483	      8.27823895	     -7.17117483	     -8.27823895	     16.93101885	     19.54477793	     -3.42816052	     -3.95738949	     27.70481768	     31.98180298	     12.45340507	     14.37592379	    -12.45340507	    -14.37592379	    -27.70481768	    -31.98180298	      3.42816052	      3.95738949	     30.00000000	     -0.00000000	     69.96355038	     80.76431002	    -30.00000000	      0.00000000	      0.00000000	      0.00000000
